<svg xmlns="http://www.w3.org/2000/svg" xmlns:xlink="http://www.w3.org/1999/xlink" width="21" height="21" viewBox="0 0 21 21">
  <defs>
    <clipPath id="clip-path">
      <rect id="Rectangle_3234" data-name="Rectangle 3234" width="21" height="21" transform="translate(23 97)" fill="#fff" stroke="#707070" stroke-width="1"/>
    </clipPath>
  </defs>
  <g id="Mask_Group_15" data-name="Mask Group 15" transform="translate(-23 -97)" clip-path="url(#clip-path)">
    <path id="mail_1_" data-name="mail (1)" d="M20.991,7.661v9.928A2.311,2.311,0,0,1,18.682,19.9H2.308A2.311,2.311,0,0,1,0,17.588V6.092A2.311,2.311,0,0,1,2.308,3.783h9.324a.392.392,0,1,1,0,.784H2.308A1.526,1.526,0,0,0,.784,6.092V7.254l8.963,4.353a1.688,1.688,0,0,0,1.492,0l5.1-2.508a.392.392,0,1,1,.346.7l-5.1,2.508a2.468,2.468,0,0,1-2.181.005L.784,8.126v9.462a1.526,1.526,0,0,0,1.524,1.524H18.682a1.526,1.526,0,0,0,1.524-1.524V7.661a.392.392,0,0,1,.784,0ZM6.125,13.218,2.3,17.039a.392.392,0,0,0,.555.555l3.821-3.821a.392.392,0,1,0-.555-.555Zm8.742,0a.392.392,0,0,0-.555.555l3.821,3.821a.392.392,0,1,0,.555-.555ZM13.851,3.355l6.631-2.231a.392.392,0,0,1,.5.5L18.748,8.252a.392.392,0,0,1-.719.058L16.568,5.536,13.793,4.073a.392.392,0,0,1,.058-.719Zm1.117.452,1.816.957L18.1,3.45A.392.392,0,0,1,18.654,4L17.34,5.318,18.3,7.135l1.687-5.015Z" transform="translate(23 97)"/>
  </g>
</svg>
