<svg xmlns="http://www.w3.org/2000/svg" xmlns:xlink="http://www.w3.org/1999/xlink" width="16" height="16" viewBox="0 0 16 16">
  <defs>
    <clipPath id="clip-path">
      <rect id="Rectangle_3236" data-name="Rectangle 3236" width="16" height="16" transform="translate(26 165)" fill="#fff" stroke="#707070" stroke-width="1"/>
    </clipPath>
  </defs>
  <g id="Mask_Group_18" data-name="Mask Group 18" transform="translate(-26 -165)" clip-path="url(#clip-path)">
    <g id="handshake" transform="translate(26 165)">
      <g id="Group_9151" data-name="Group 9151">
        <path id="Path_5815" data-name="Path 5815" d="M16,5.449a1.124,1.124,0,0,0-.23-.692L14.5,3.135a1.09,1.09,0,0,0-.858-.407,1.057,1.057,0,0,0-.561.157l-1.236.769a1.128,1.128,0,0,1-.568.138,1.03,1.03,0,0,1-.436-.085L9.633,3.12A1.458,1.458,0,0,0,9,2.987a1.574,1.574,0,0,0-.889.256l-.141.1L7.491,3.1A1.814,1.814,0,0,0,6.7,2.94a1.886,1.886,0,0,0-.724.133l-.825.352a1.508,1.508,0,0,1-.56.1,1.507,1.507,0,0,1-.559-.1L3.21,3.073a1.2,1.2,0,0,0-.471-.092,1.434,1.434,0,0,0-.536.105,1.218,1.218,0,0,0-.452.311L.249,5.08a.976.976,0,0,0,.1,1.395l1.4,1.2-.665.694a.991.991,0,0,0,.034,1.4l.135.128a.989.989,0,0,0,.44.238.979.979,0,0,0,.185,1.19h0l.135.129a1,1,0,0,0,1.077.195.98.98,0,0,0,.276.48l.135.129a1,1,0,0,0,1.241.107A.984.984,0,0,0,5,12.787l.135.129a1,1,0,0,0,1.41-.033l.588-.614.8.739a1,1,0,0,0,1.409-.051l.127-.137a.983.983,0,0,0,.223-.4L10,12.7a1,1,0,0,0,1.41-.052l.127-.136a.98.98,0,0,0,.254-.548.976.976,0,0,0,.979-.281l.127-.136a.988.988,0,0,0,.266-.675,1.013,1.013,0,0,0-.027-.223.988.988,0,0,0,.6-.3l.127-.137a.992.992,0,0,0-.052-1.4l-.238-.22L15.717,6.21A1.132,1.132,0,0,0,16,5.449ZM1.938,9.627A.452.452,0,0,1,1.625,9.5L1.49,9.375a.451.451,0,0,1-.016-.638L2.836,7.317A.457.457,0,0,1,3.477,7.3l.135.128a.853.853,0,0,1,.14.327.449.449,0,0,1-.081.255L2.2,9.543A.459.459,0,0,1,1.938,9.627Zm1.088,1.417a.457.457,0,0,1-.641.015l-.135-.129h0a.452.452,0,0,1-.015-.638S4.049,8.4,4.064,8.385a.455.455,0,0,1,.627,0l.135.129a.452.452,0,0,1,.015.638Zm1.488.8a.456.456,0,0,1-.64.015l-.136-.129a.448.448,0,0,1-.039-.607L4.962,9.808a.453.453,0,0,1,.615.006l.136.129a.451.451,0,0,1,.015.638Zm2.4-.139-.767.8a.457.457,0,0,1-.641.015L5.372,12.4a.451.451,0,0,1-.015-.638l.767-.8a.457.457,0,0,1,.641-.015l.136.129a.452.452,0,0,1,.015.638Zm6.664-2.172a.447.447,0,0,1-.121.307l-.127.136a.457.457,0,0,1-.641.023L10.549,8.023l-.37.4,2.292,2.124a.451.451,0,0,1,.023.638l-.127.136a.457.457,0,0,1-.64.023L9.585,9.36l-.37.4,1.9,1.758a.451.451,0,0,1,.019.631l-.127.136a.457.457,0,0,1-.641.024l-1.9-1.752h0l-.369.4h0l.007.007.95.877a.446.446,0,0,1,.008.618l-.127.137a.456.456,0,0,1-.639.023l-.827-.766a.977.977,0,0,0-.2-1.167l-.136-.129a1,1,0,0,0-.687-.273c-.019,0-.038,0-.057.005,0,0,0-.009,0-.014a1.893,1.893,0,0,0-.308-.719l-.135-.128a.993.993,0,0,0-.5-.256A.978.978,0,0,0,5.2,8.12l-.135-.129a1,1,0,0,0-.688-.273c-.029,0-.057.006-.086.008a.988.988,0,0,0-.305-.687h0L3.854,6.91a1,1,0,0,0-1.41.033l-.321.335L.7,6.064A.437.437,0,0,1,.656,5.44l1.5-1.683a.686.686,0,0,1,.251-.169.894.894,0,0,1,.33-.065A.659.659,0,0,1,3,3.572l.825.352a2.03,2.03,0,0,0,.774.139,2.03,2.03,0,0,0,.774-.139l.824-.352a1.351,1.351,0,0,1,.51-.089,1.294,1.294,0,0,1,.545.1l.22.11-.841.591a.971.971,0,0,0-.222,1.379h0l.111.149a1.085,1.085,0,0,0,.868.425,1.055,1.055,0,0,0,.543-.148l.5-.3a.828.828,0,0,1,.418-.1.87.87,0,0,1,.492.138l1.391,1a13.9,13.9,0,0,1,1.093.892l1.61,1.489A.449.449,0,0,1,13.579,9.537Zm1.735-3.689L13.168,8.22l-.974-.9a14.331,14.331,0,0,0-1.146-.935l-1.391-1a1.406,1.406,0,0,0-.81-.24,1.369,1.369,0,0,0-.7.179l-.5.3a.51.51,0,0,1-.262.07.542.542,0,0,1-.432-.206l-.111-.149h0a.431.431,0,0,1,.1-.613L8.427,3.685A1.046,1.046,0,0,1,9,3.529a.921.921,0,0,1,.394.078l1.21.586a1.564,1.564,0,0,0,.674.14,1.656,1.656,0,0,0,.856-.221l1.236-.769a.514.514,0,0,1,.272-.075.549.549,0,0,1,.429.2L15.341,5.09a.59.59,0,0,1,.115.36A.6.6,0,0,1,15.314,5.848Z"/>
      </g>
    </g>
  </g>
</svg>
